<svg width="434" height="499" viewBox="0 0 434 499" fill="none" xmlns="http://www.w3.org/2000/svg">
<path d="M142.768 319.568C102.491 319.568 71.2587 311.035 49.072 293.968C26.8853 276.56 15.792 252.837 15.792 222.8C15.792 192.763 26.8853 169.04 49.072 151.632C71.2587 134.224 102.491 125.52 142.768 125.52C183.045 125.52 214.277 134.224 236.464 151.632C258.651 169.04 269.744 192.763 269.744 222.8C269.744 252.837 258.651 276.56 236.464 293.968C214.277 311.035 183.045 319.568 142.768 319.568ZM96.176 498.768C90.7147 498.768 86.96 497.744 84.912 495.696C82.864 493.648 81.84 490.064 81.84 484.944V364.112C81.84 358.992 82.864 355.408 84.912 353.36C86.96 351.312 90.7147 350.288 96.176 350.288H132.016C137.477 350.288 141.232 351.312 143.28 353.36C145.328 355.408 146.352 358.992 146.352 364.112V438.352L369.072 434.256C373.851 434.256 377.093 435.109 378.8 436.816C380.848 438.523 381.872 442.107 381.872 447.568V480.336C381.872 485.797 381.019 489.381 379.312 491.088C377.605 492.795 374.363 493.648 369.584 493.648L96.176 498.768ZM382.384 217.168V324.176C382.384 329.296 381.36 332.88 379.312 334.928C377.264 336.976 373.509 338 368.048 338H332.208C326.747 338 322.992 336.976 320.944 334.928C318.896 332.88 317.872 329.296 317.872 324.176V46.672C317.872 41.552 318.896 37.968 320.944 35.92C322.992 33.872 326.747 32.848 332.208 32.848H368.048C373.509 32.848 377.264 33.872 379.312 35.92C381.36 37.968 382.384 41.552 382.384 46.672V157.776L420.784 156.24C425.563 155.899 428.805 156.752 430.512 158.8C432.56 160.507 433.584 164.091 433.584 169.552V202.32C433.584 207.781 432.56 211.365 430.512 213.072C428.805 214.437 425.563 215.291 420.784 215.632L382.384 217.168ZM105.392 44.112V13.904C105.392 8.78398 106.416 5.19997 108.464 3.15198C110.512 1.10398 114.267 0.0799866 119.728 0.0799866H155.568C161.029 0.0799866 164.784 1.10398 166.832 3.15198C168.88 5.19997 169.904 8.78398 169.904 13.904V42.576L260.528 40.528C265.307 40.528 268.549 41.3813 270.256 43.088C272.304 44.7946 273.328 48.3787 273.328 53.84V85.584C273.328 91.3867 272.304 95.312 270.256 97.36C268.549 99.0667 265.477 99.92 261.04 99.92L13.232 105.04C8.79467 105.04 5.552 104.187 3.504 102.48C1.79733 100.432 0.944 96.5067 0.944 90.704V58.96C0.944 53.4986 1.79733 49.9146 3.504 48.208C5.552 46.5013 8.96533 45.648 13.744 45.648L105.392 44.112ZM142.768 265.296C161.2 265.296 176.048 261.541 187.312 254.032C198.576 246.523 204.208 236.112 204.208 222.8C204.208 209.147 198.576 198.565 187.312 191.056C176.048 183.547 161.2 179.792 142.768 179.792C124.336 179.792 109.488 183.547 98.224 191.056C86.96 198.565 81.328 209.147 81.328 222.8C81.328 236.112 86.96 246.523 98.224 254.032C109.488 261.541 124.336 265.296 142.768 265.296Z" fill="white"/>
</svg>
