<svg width="116" height="25" viewBox="0 0 116 25" fill="none" xmlns="http://www.w3.org/2000/svg">
<path d="M13.432 15.256C13.4533 14.232 13.4 13.3787 13.272 12.696C13.1653 12.0133 12.9413 11.4693 12.6 11.064C12.28 10.6373 11.8427 10.3387 11.288 10.168C10.7333 9.99733 10.04 9.92267 9.208 9.944C8.376 9.96533 7.58667 10.0293 6.84 10.136C6.11467 10.2427 5.45333 10.3707 4.856 10.52V23.48C4.856 23.8213 4.78133 24.056 4.632 24.184C4.504 24.312 4.25867 24.376 3.896 24.376H1.752C1.38933 24.376 1.144 24.312 1.016 24.184C0.888 24.056 0.824 23.8213 0.824 23.48V0.919998C0.824 0.578665 0.888 0.343999 1.016 0.216C1.144 0.0879987 1.38933 0.0239983 1.752 0.0239983H3.896C4.25867 0.0239983 4.504 0.0879987 4.632 0.216C4.78133 0.343999 4.856 0.578665 4.856 0.919998V6.744C5.70933 6.59467 6.648 6.47733 7.672 6.392C8.71733 6.28533 9.848 6.232 11.064 6.232C12.216 6.232 13.1973 6.424 14.008 6.808C14.84 7.192 15.5227 7.72533 16.056 8.408C16.5893 9.09067 16.9733 9.89067 17.208 10.808C17.4427 11.7253 17.5387 12.728 17.496 13.816L17.208 23.48C17.1867 23.8213 17.112 24.056 16.984 24.184C16.8773 24.312 16.6427 24.376 16.28 24.376H14.104C13.7413 24.376 13.496 24.312 13.368 24.184C13.24 24.056 13.176 23.8213 13.176 23.48L13.432 15.256ZM35.5843 23.16C35.6056 23.5013 35.5203 23.7573 35.3283 23.928C35.1363 24.0987 34.8589 24.184 34.4963 24.184C33.3443 24.184 32.1816 24.1947 31.0083 24.216C29.8349 24.2373 28.7043 24.2267 27.6163 24.184C26.5283 24.1413 25.5043 24.0347 24.5443 23.864C23.6056 23.6933 22.7843 23.416 22.0803 23.032C21.3763 22.6693 20.8216 22.1787 20.4163 21.56C20.0109 20.92 19.8083 20.12 19.8083 19.16C19.8083 17.88 20.1923 16.8453 20.9603 16.056C21.7283 15.2667 22.6883 14.648 23.8403 14.2C25.0136 13.7307 26.2723 13.4 27.6163 13.208C28.9603 13.016 30.2083 12.8773 31.3603 12.792C31.2323 12.024 30.9016 11.4267 30.3683 11C29.8349 10.5733 29.1629 10.2747 28.3523 10.104C27.5629 9.93333 26.6563 9.88 25.6323 9.944C24.6296 9.98667 23.5843 10.104 22.4963 10.296C22.1976 10.3387 21.9949 10.328 21.8883 10.264C21.7816 10.1787 21.7176 10.0187 21.6963 9.784L21.5043 7.576C21.4829 7.27733 21.5043 7.064 21.5683 6.936C21.6536 6.78667 21.8349 6.69067 22.1123 6.648C22.9443 6.47733 23.8403 6.33867 24.8003 6.232C25.7816 6.12533 26.7523 6.09333 27.7123 6.136C28.6936 6.17867 29.6323 6.328 30.5283 6.584C31.4243 6.81867 32.2136 7.20267 32.8963 7.736C33.6003 8.248 34.1656 8.93067 34.5923 9.784C35.0189 10.6373 35.2536 11.6933 35.2963 12.952L35.5843 23.16ZM24.0003 18.808C24.0003 19.2347 24.1923 19.5867 24.5763 19.864C24.9603 20.1413 25.4829 20.3547 26.1443 20.504C26.8269 20.632 27.6269 20.7173 28.5443 20.76C29.4616 20.7813 30.4536 20.7707 31.5203 20.728L31.4243 16.344C29.1629 16.4507 27.3603 16.7067 26.0163 17.112C24.6723 17.5173 24.0003 18.0827 24.0003 18.808ZM55.2713 23.48C55.2713 23.8213 55.2073 24.056 55.0793 24.184C54.9513 24.312 54.7059 24.376 54.3433 24.376H52.1673C51.8046 24.376 51.5486 24.312 51.3993 24.184C51.2713 24.056 51.2179 23.8213 51.2393 23.48L51.4953 14.392C51.5379 12.664 51.2073 11.4907 50.5033 10.872C49.8206 10.2533 48.6899 10.008 47.1113 10.136C46.4286 10.1787 45.7353 10.232 45.0312 10.296C44.3273 10.36 43.6979 10.456 43.1433 10.584V23.48C43.1433 23.8213 43.0793 24.056 42.9513 24.184C42.8233 24.312 42.5779 24.376 42.2153 24.376H40.0393C39.6766 24.376 39.4313 24.312 39.3033 24.184C39.1753 24.056 39.1113 23.8213 39.1113 23.48L38.8553 8.504C38.8553 8.20533 38.8659 7.97067 38.8873 7.8C38.9086 7.608 38.9513 7.45867 39.0153 7.352C39.1006 7.24533 39.2286 7.17067 39.3993 7.128C39.5699 7.064 39.7939 7.01067 40.0713 6.968C40.6473 6.88267 41.2339 6.79733 41.8313 6.712C42.4286 6.62667 43.0793 6.56267 43.7833 6.52C44.4873 6.456 45.2659 6.41333 46.1193 6.392C46.9939 6.34933 47.9966 6.328 49.1273 6.328C50.2793 6.328 51.2606 6.53067 52.0713 6.936C52.9033 7.34133 53.5753 7.896 54.0873 8.6C54.6206 9.304 55.0046 10.136 55.2393 11.096C55.4739 12.056 55.5699 13.08 55.5273 14.168L55.2713 23.48ZM70.952 9.016C70.9733 9.31467 70.9413 9.51733 70.856 9.624C70.7707 9.70933 70.5787 9.752 70.28 9.752C67.6133 9.752 65.5973 10.2533 64.232 11.256C62.8667 12.2373 62.184 13.6987 62.184 15.64C62.184 16.6427 62.3867 17.4747 62.792 18.136C63.1973 18.7973 63.7733 19.32 64.52 19.704C65.288 20.088 66.1947 20.344 67.24 20.472C68.3067 20.6 69.48 20.632 70.76 20.568C70.952 20.5467 71.08 20.5787 71.144 20.664C71.2293 20.728 71.2827 20.8453 71.304 21.016L71.464 23.64C71.4853 23.96 71.3253 24.1307 70.984 24.152C69.2773 24.3227 67.6453 24.3013 66.088 24.088C64.552 23.8747 63.1867 23.4267 61.992 22.744C60.8187 22.0613 59.88 21.1227 59.176 19.928C58.4933 18.712 58.152 17.1867 58.152 15.352C58.152 13.7093 58.4613 12.2907 59.08 11.096C59.72 9.88 60.584 8.89867 61.672 8.152C62.76 7.384 64.0293 6.84 65.48 6.52C66.952 6.17867 68.52 6.072 70.184 6.2C70.4613 6.22133 70.6427 6.28533 70.728 6.392C70.8133 6.47733 70.8667 6.66933 70.888 6.968L70.952 9.016ZM76.9913 15.32C76.9913 16.1307 77.0979 16.8667 77.3113 17.528C77.5246 18.1893 77.8339 18.7547 78.2393 19.224C78.6446 19.6933 79.1246 20.0667 79.6793 20.344C80.2339 20.6 80.8633 20.728 81.5673 20.728C82.2713 20.728 82.9006 20.6 83.4553 20.344C84.0313 20.0667 84.5113 19.6933 84.8953 19.224C85.3006 18.7547 85.6099 18.1893 85.8233 17.528C86.0579 16.8667 86.1753 16.1307 86.1753 15.32C86.1753 14.5307 86.0579 13.8053 85.8233 13.144C85.6099 12.4613 85.3006 11.8853 84.8953 11.416C84.5113 10.9467 84.0313 10.584 83.4553 10.328C82.9006 10.0507 82.2713 9.912 81.5673 9.912C80.8633 9.912 80.2339 10.0507 79.6793 10.328C79.1246 10.584 78.6446 10.9467 78.2393 11.416C77.8339 11.8853 77.5246 12.4613 77.3113 13.144C77.0979 13.8053 76.9913 14.5307 76.9913 15.32ZM73.2153 15.32C73.2153 13.9973 73.4073 12.7813 73.7913 11.672C74.1966 10.5413 74.7619 9.57067 75.4873 8.76C76.2126 7.928 77.0873 7.288 78.1113 6.84C79.1353 6.37067 80.2873 6.136 81.5673 6.136C82.8473 6.136 83.9993 6.37067 85.0233 6.84C86.0686 7.288 86.9433 7.928 87.6473 8.76C88.3726 9.57067 88.9273 10.5413 89.3113 11.672C89.7166 12.7813 89.9193 13.9973 89.9193 15.32C89.9193 16.6427 89.7166 17.8693 89.3113 19C88.9273 20.1307 88.3726 21.1013 87.6473 21.912C86.9433 22.7227 86.0686 23.352 85.0233 23.8C83.9993 24.2693 82.8473 24.504 81.5673 24.504C80.2873 24.504 79.1353 24.2693 78.1113 23.8C77.0873 23.352 76.2126 22.7227 75.4873 21.912C74.7619 21.1013 74.1966 20.1307 73.7913 19C73.4073 17.8693 73.2153 16.6427 73.2153 15.32ZM95.9913 15.32C95.9913 16.1307 96.0979 16.8667 96.3113 17.528C96.5246 18.1893 96.8339 18.7547 97.2393 19.224C97.6446 19.6933 98.1246 20.0667 98.6793 20.344C99.2339 20.6 99.8633 20.728 100.567 20.728C101.271 20.728 101.901 20.6 102.455 20.344C103.031 20.0667 103.511 19.6933 103.895 19.224C104.301 18.7547 104.61 18.1893 104.823 17.528C105.058 16.8667 105.175 16.1307 105.175 15.32C105.175 14.5307 105.058 13.8053 104.823 13.144C104.61 12.4613 104.301 11.8853 103.895 11.416C103.511 10.9467 103.031 10.584 102.455 10.328C101.901 10.0507 101.271 9.912 100.567 9.912C99.8633 9.912 99.2339 10.0507 98.6793 10.328C98.1246 10.584 97.6446 10.9467 97.2393 11.416C96.8339 11.8853 96.5246 12.4613 96.3113 13.144C96.0979 13.8053 95.9913 14.5307 95.9913 15.32ZM92.2153 15.32C92.2153 13.9973 92.4073 12.7813 92.7913 11.672C93.1966 10.5413 93.7619 9.57067 94.4873 8.76C95.2126 7.928 96.0873 7.288 97.1113 6.84C98.1353 6.37067 99.2873 6.136 100.567 6.136C101.847 6.136 102.999 6.37067 104.023 6.84C105.069 7.288 105.943 7.928 106.647 8.76C107.373 9.57067 107.927 10.5413 108.311 11.672C108.717 12.7813 108.919 13.9973 108.919 15.32C108.919 16.6427 108.717 17.8693 108.311 19C107.927 20.1307 107.373 21.1013 106.647 21.912C105.943 22.7227 105.069 23.352 104.023 23.8C102.999 24.2693 101.847 24.504 100.567 24.504C99.2873 24.504 98.1353 24.2693 97.1113 23.8C96.0873 23.352 95.2126 22.7227 94.4873 21.912C93.7619 21.1013 93.1966 20.1307 92.7913 19C92.4073 17.8693 92.2153 16.6427 92.2153 15.32ZM111.519 0.919998C111.519 0.578665 111.583 0.343999 111.711 0.216C111.839 0.0879987 112.084 0.0239983 112.447 0.0239983H114.623C114.986 0.0239983 115.231 0.0879987 115.359 0.216C115.487 0.343999 115.551 0.578665 115.551 0.919998V23.48C115.551 23.8213 115.487 24.056 115.359 24.184C115.231 24.312 114.986 24.376 114.623 24.376H112.447C112.084 24.376 111.839 24.312 111.711 24.184C111.583 24.056 111.519 23.8213 111.519 23.48V0.919998Z" fill="white"/>
</svg>
